<?xml version="1.0" encoding="utf-8"?><svg xmlns="http://www.w3.org/2000/svg" xmlns:xlink="http://www.w3.org/1999/xlink" width="1920" height="933" preserveAspectRatio="xMidYMid" viewBox="0 0 1920 933" style="z-index:1;margin-right:-2px;display:block;background-repeat-y:initial;background-repeat-x:initial;background-color:rgb(241, 242, 243);animation-play-state:paused" ><g transform="translate(960,466.5) scale(1,1) translate(-960,-466.5)" style="transform:matrix(1, 0, 0, 1, 0, 0);animation-play-state:paused" ><path d="M -100 574.17 C -64 579.19 -62.66 571.25 -31.61 571.25 S 6.46 541.37 36.77 541.37 S 74.44 574.36 105.16 574.36 S 142.24 577.45 173.55 577.45 S 207.98 554.53 241.94 554.53 S 278.28 563.49 310.32 563.49 S 346.01 564.57 378.71 564.57 S 414.36 543.16 447.1 543.16 S 483.19 551.65 515.48 551.65 S 552.79 543.47 583.87 543.47 S 618.58 546 652.26 546 S 689.98 575.27 720.65 575.27 S 757.51 562.81 789.03 562.81 S 824.68 573.97 857.42 573.97 S 892.38 544.43 925.81 544.43 S 962.73 574.99 994.19 574.99 S 1028.78 557.6 1062.58 557.6 S 1097.58 569.51 1130.97 569.51 S 1166.05 547.01 1199.35 547.01 S 1236.91 553.31 1267.74 553.31 S 1305.04 565.41 1336.13 565.41 S 1373.17 553.9 1404.52 553.9 S 1438.93 554.8 1472.9 554.8 S 1509.57 574.34 1541.29 574.34 S 1578.87 561.04 1609.68 561.04 S 1646.39 561.13 1678.06 561.13 S 1714.81 569.77 1746.45 569.77 S 1781.15 550.4 1814.84 550.4 S 1849.45 544.62 1883.23 544.62 S 1917.72 571 1951.61 571 S 1987.21 544.36 2020 544.36 S 2054.29 574.31 2088.39 574.31 L 2020 933 L -100 933 Z" fill="#3c0f0f" stroke-width="0" transform="matrix(1,0,0,1,0,0)" style="transform:matrix(1, 0, 0, 1, 0, 0);animation-play-state:paused" ></path>
<path d="M -100 597.11 C -61 574 -61.52 603.71 -29.8 603.71 S 5.88 598.73 40.4 598.73 S 76.46 603.36 110.6 603.36 S 147.63 579.89 180.79 579.89 S 218.45 603.43 250.99 603.43 S 287.13 605.51 321.19 605.51 S 357.29 577.73 391.39 577.73 S 427.19 598.42 461.59 598.42 S 500.55 583.02 531.79 583.02 S 569.88 576.29 601.99 576.29 S 640.55 582.79 672.19 582.79 S 707.97 587.89 742.38 587.89 S 781.12 596.89 812.58 596.89 S 849.52 583.08 882.78 583.08 S 918.38 585.81 952.98 585.81 S 991.33 591.18 1023.18 591.18 S 1059.86 573.81 1093.38 573.81 S 1130.14 609.18 1163.58 609.18 S 1201.21 589.83 1233.77 589.83 S 1272.71 578.29 1303.97 578.29 S 1341.16 608.7 1374.17 608.7 S 1412.55 586.68 1444.37 586.68 S 1480.82 587.51 1514.57 587.51 S 1552.26 608.67 1584.77 608.67 S 1620.75 586.55 1654.97 586.55 S 1693.47 594.91 1725.17 594.91 S 1763.95 600.74 1795.36 600.74 S 1834.36 596.82 1865.56 596.82 S 1903.5 613.73 1935.76 613.73 S 1972.35 570.68 2005.96 570.68 S 2044.63 589.34 2076.16 589.34 L 2020 933 L -100 933 Z" fill="#4d1113" stroke-width="0" transform="matrix(1,0,0,1,1.1340199708938599,0)" style="transform:matrix(1, 0, 0, 1, 1.13402, 0);animation-play-state:paused" ></path>
<path d="M -100 608.87 C -61.59 604.19 -60.96 628.24 -27.89 628.24 S 11.37 628.86 44.22 628.86 S 82.46 635.74 116.33 635.74 S 152.99 638.47 188.44 638.47 S 225.08 614.52 260.54 614.52 S 299.76 604.97 332.65 604.97 S 369.53 645.96 404.76 645.96 S 444.21 627.23 476.87 627.23 S 516.14 643.35 548.98 643.35 S 587.05 624.72 621.09 624.72 S 657.95 641.79 693.2 641.79 S 732.18 599.79 765.31 599.79 S 802.96 628.1 837.41 628.1 S 877.22 603.94 909.52 603.94 S 946.28 610.59 981.63 610.59 S 1018.41 632.79 1053.74 632.79 S 1093.7 632.91 1125.85 632.91 S 1163.71 648.18 1197.96 648.18 S 1235.8 621.32 1270.07 621.32 S 1308.37 629.93 1342.18 629.93 S 1379.41 630.38 1414.29 630.38 S 1453.23 634.44 1486.39 634.44 S 1524.44 616.74 1558.5 616.74 S 1597.24 613.18 1630.61 613.18 S 1668.69 626.84 1702.72 626.84 S 1739.69 631.88 1774.83 631.88 S 1812.25 629 1846.94 629 S 1884.75 622.75 1919.05 622.75 S 1955.87 648.42 1991.16 648.42 S 2030.96 641.95 2063.27 641.95 L 2020 933 L -100 933 Z" fill="#5f1215" stroke-width="0" transform="matrix(1,0,0,1,3.5863146781921387,0)" style="transform:matrix(1, 0, 0, 1, 3.58631, 0);animation-play-state:paused" ></path>
<path d="M -100 636.39 C -62.57 652.18 -62.12 673.98 -25.87 673.98 S 14.06 649.61 48.25 649.61 S 88.13 676.3 122.38 676.3 S 163.32 646.77 196.5 646.77 S 234.81 666.13 270.63 666.13 S 310.16 643.73 344.76 643.73 S 383.7 667.85 418.88 667.85 S 458.44 630.73 493.01 630.73 S 530.7 667.59 567.13 667.59 S 606.19 635.09 641.26 635.09 S 678.78 656.2 715.38 656.2 S 754.73 642.69 789.51 642.69 S 827.65 651.17 863.64 651.17 S 904.02 629.49 937.76 629.49 S 975.7 662.53 1011.89 662.53 S 1050.88 679.57 1086.01 679.57 S 1126.09 651.31 1160.14 651.31 S 1199.14 650.84 1234.27 650.84 S 1272.96 671.25 1308.39 671.25 S 1347.56 646.06 1382.52 646.06 S 1420.61 662.35 1456.64 662.35 S 1496.04 680.04 1530.77 680.04 S 1570.78 632.93 1604.9 632.93 S 1644.32 682.53 1679.02 682.53 S 1717.29 637.4 1753.15 637.4 S 1790.37 662.63 1827.27 662.63 S 1865.32 649.24 1901.4 649.24 S 1939.43 665.11 1975.52 665.11 S 2014.6 630.02 2049.65 630.02 L 2020 933 L -100 933 Z" fill="#721217" stroke-width="0" transform="matrix(1,0,0,1,6.4136810302734375,0)" style="transform:matrix(1, 0, 0, 1, 6.41368, 0);animation-play-state:paused" ></path>
<path d="M -100 685.52 C -60.53 708.85 -60.85 671.92 -23.74 671.92 S 18.03 664.86 52.52 664.86 S 93.91 691.81 128.78 691.81 S 168.14 674.73 205.04 674.73 S 246.53 686.32 281.29 686.32 S 322.18 663.07 357.55 663.07 S 398.11 716.54 433.81 716.54 S 472.91 669.43 510.07 669.43 S 551.12 710.15 586.33 710.15 S 625.59 694.28 662.59 694.28 S 701.99 692.07 738.85 692.07 S 780.8 660.62 815.11 660.62 S 856.79 693.16 891.37 693.16 S 932.5 676.1 967.63 676.1 S 1009.56 715.86 1043.88 715.86 S 1083.03 672.61 1120.14 672.61 S 1160.94 701.62 1196.4 701.62 S 1237.41 698.77 1272.66 698.77 S 1311.14 710.56 1348.92 710.56 S 1390.91 665.12 1425.18 665.12 S 1465.97 715.51 1501.44 715.51 S 1543 681.39 1577.7 681.39 S 1618.32 700.42 1653.96 700.42 S 1693.65 679.87 1730.22 679.87 S 1769.94 693.16 1806.47 693.16 S 1848.19 663.88 1882.73 663.88 S 1924.54 714.64 1958.99 714.64 S 1998.89 701.67 2035.25 701.67 L 2020 933 L -100 933 Z" fill="#851219" stroke-width="0" transform="matrix(1,0,0,1,8.865979194641113,0)" style="transform:matrix(1, 0, 0, 1, 8.86598, 0);animation-play-state:paused" ></path>
<path d="M -100 685.79 C -59.02 693.37 -59.64 750.77 -21.48 750.77 S 17.85 723.31 57.04 723.31 S 96.81 707.88 135.56 707.88 S 177.57 687.42 214.07 687.42 S 255.54 717.95 292.59 717.95 S 332.24 715.49 371.11 715.49 S 411.62 724.93 449.63 724.93 S 490.02 714.13 528.15 714.13 S 570.46 694.4 606.67 694.4 S 646.2 723.52 685.19 723.52 S 727.03 727.34 763.7 727.34 S 805.68 713.79 842.22 713.79 S 884.96 734.01 920.74 734.01 S 960.26 708.86 999.26 708.86 S 1040.83 735.54 1077.78 735.54 S 1117.65 706.36 1156.3 706.36 S 1198.65 706.48 1234.81 706.48 S 1274.14 719.12 1313.33 719.12 S 1355.7 714.92 1391.85 714.92 S 1433.31 710.27 1470.37 710.27 S 1512.69 718.1 1548.89 718.1 S 1588.98 749.08 1627.41 749.08 S 1668.81 719.83 1705.93 719.83 S 1748.49 713.85 1784.44 713.85 S 1826.54 730.9 1862.96 730.9 S 1902.37 699.42 1941.48 699.42 S 1981.7 703.19 2020 703.19 S 2061.26 694.75 2098.52 694.75 L 2020 933 L -100 933 Z" fill="#98121a" stroke-width="0" transform="matrix(1,0,0,1,10,0)" style="transform:matrix(1, 0, 0, 1, 10, 0);animation-play-state:paused" ></path>
<path d="M -100 729.28 C -55.76 753.55 -57.26 752.26 -19.08 752.26 S 23.46 729.11 61.83 729.11 S 102.58 781.23 142.75 781.23 S 185.75 786 223.66 786 S 265.64 773.88 304.58 773.88 S 347.3 735.74 385.5 735.74 S 428.41 763.92 466.41 763.92 S 508.54 768.43 547.33 768.43 S 591.12 783.7 628.24 783.7 S 671.41 782.94 709.16 782.94 S 750.78 775.33 790.08 775.33 S 831.55 740.36 870.99 740.36 S 914.75 775.21 951.91 775.21 S 993.69 729.4 1032.82 729.4 S 1074.98 753.2 1113.74 753.2 S 1154.2 743.29 1194.66 743.29 S 1237.91 750.57 1275.57 750.57 S 1318.67 722.46 1356.49 722.46 S 1398 775.72 1437.4 775.72 S 1480.03 753.38 1518.32 753.38 S 1561.24 765.95 1599.24 765.95 S 1640.85 736.8 1680.15 736.8 S 1723.18 746.05 1761.07 746.05 S 1803.16 723.53 1841.98 723.53 S 1883.42 779.45 1922.9 779.45 S 1964.55 730.76 2003.82 730.76 S 2047.09 779.85 2084.73 779.85 L 2020 933 L -100 933 Z" fill="#ab131a" stroke-width="0" transform="matrix(1,0,0,1,8.865982055664062,0)" style="transform:matrix(1, 0, 0, 1, 8.86598, 0);animation-play-state:paused" ></path>
<path d="M -100 753.35 C -54.95 779.41 -55.61 797.83 -16.54 797.83 S 25.7 752.18 66.93 752.18 S 108.78 792.13 150.39 792.13 S 192.57 780.81 233.86 780.81 S 276.3 787.59 317.32 787.59 S 360.41 766.25 400.79 766.25 S 445.34 785.56 484.25 785.56 S 527.89 754.7 567.72 754.7 S 609.87 789.69 651.18 789.69 S 695.86 749.09 734.65 749.09 S 778.13 799.12 818.11 799.12 S 862.99 797.32 901.57 797.32 S 945.31 819.33 985.04 819.33 S 1030.43 775.39 1068.5 775.39 S 1112.12 796.26 1151.97 796.26 S 1195.29 785.22 1235.43 785.22 S 1279.61 801.32 1318.9 801.32 S 1362.84 749.25 1402.36 749.25 S 1445.31 760.88 1485.83 760.88 S 1531.04 764.87 1569.29 764.87 S 1614.57 814.96 1652.76 814.96 S 1696.4 757.92 1736.22 757.92 S 1778.4 794.65 1819.69 794.65 S 1861.58 748.22 1903.15 748.22 S 1947.33 781.43 1986.61 781.43 S 2029.75 748.28 2070.08 748.28 L 2020 933 L -100 933 Z" fill="#be1319" stroke-width="0" transform="matrix(1,0,0,1,6.413689136505127,0)" style="transform:matrix(1, 0, 0, 1, 6.41369, 0);animation-play-state:paused" ></path>
<path d="M -100 810.27 C -54.84 777.05 -55.67 846.45 -13.82 846.45 S 29.9 809.44 72.36 809.44 S 115.91 833.78 158.54 833.78 S 202.25 782.12 244.72 782.12 S 289.13 807.93 330.89 807.93 S 375.32 850.81 417.07 850.81 S 460.46 835.35 503.25 835.35 S 548.07 787.59 589.43 787.59 S 636.29 846.65 675.61 846.65 S 720.53 796.97 761.79 796.97 S 805.41 840.53 847.97 840.53 S 891.69 806.6 934.15 806.6 S 978.22 817.91 1020.33 817.91 S 1064.03 772.85 1106.5 772.85 S 1151.14 811.12 1192.68 811.12 S 1236.93 803.58 1278.86 803.58 S 1325.22 828.27 1365.04 828.27 S 1409.8 843.71 1451.22 843.71 S 1496.46 819.63 1537.4 819.63 S 1583.95 786.92 1623.58 786.92 S 1667.66 826.9 1709.76 826.9 S 1755.52 799.08 1795.93 799.08 S 1842.35 820.23 1882.11 820.23 S 1925.4 783.6 1968.29 783.6 S 2013.61 853.79 2054.47 853.79 L 2020 933 L -100 933 Z" fill="#d21418" stroke-width="0" transform="matrix(1,0,0,1,3.586310863494873,0)" style="transform:matrix(1, 0, 0, 1, 3.58631, 0);animation-play-state:paused" ></path>
<path d="M -100 819.57 C -53.2 829.04 -52.4 873.32 -10.92 873.32 S 34.93 803.28 78.15 803.28 S 123.13 857.06 167.23 857.06 S 212.42 826.3 256.3 826.3 S 303.97 852.5 345.38 852.5 S 391.8 853.92 434.45 853.92 S 481.05 857.08 523.53 857.08 S 570.88 822.46 612.61 822.46 S 660.69 868.43 701.68 868.43 S 749.46 807.9 790.76 807.9 S 838.03 852.83 879.83 852.83 S 927.42 813.7 968.91 813.7 S 1015.82 864.9 1057.98 864.9 S 1105.93 801.73 1147.06 801.73 S 1191.67 851.19 1236.13 851.19 S 1284.45 809.4 1325.21 809.4 S 1371.3 886.44 1414.29 886.44 S 1460.03 819.13 1503.36 819.13 S 1548.08 861.17 1592.44 861.17 S 1637.01 814.76 1681.51 814.76 S 1728.4 866.76 1770.59 866.76 S 1817.8 864.22 1859.66 864.22 S 1904.97 852.16 1948.74 852.16 S 1994.9 818.18 2037.82 818.18 L 2020 933 L -100 933 Z" fill="#e51615" stroke-width="0" transform="matrix(1,0,0,1,1.1340055465698242,0)" style="transform:matrix(1, 0, 0, 1, 1.13401, 0);animation-play-state:paused" ></path></g></svg>