<?xml version="1.0" encoding="utf-8"?><svg xmlns="http://www.w3.org/2000/svg" xmlns:xlink="http://www.w3.org/1999/xlink" width="1920" height="933" preserveAspectRatio="xMidYMid" viewBox="0 0 1920 933" style="z-index:1;margin-right:-2px;display:block;background-repeat-y:initial;background-repeat-x:initial;background-color:rgb(241, 242, 243);animation-play-state:paused" ><g transform="translate(960,466.5) scale(1,1) translate(-960,-466.5)" style="transform:matrix(1, 0, 0, 1, 0, 0);animation-play-state:paused" ><linearGradient id="lg-0.2754486482907712" x1="0" x2="1" y1="0" y2="0" style="animation-play-state:paused" ><stop stop-color="#215d38" offset="0" style="animation-play-state:paused" ></stop>

  
<stop stop-color="#14a651" offset="1" style="animation-play-state:paused" ></stop></linearGradient>
<path d="M 0 0 L 0 858.211 Q 192 679.61 384 651.576 T 768 645.581 T 1152 517.298 T 1536 290.688 T 1920 133.796 L 1920 0 Z" fill="url(#lg-0.2754486482907712)" opacity="0.4" style="opacity:0.4;animation-play-state:paused" ></path>
<path d="M 0 0 L 0 878.856 Q 192 816.981 384 787.286 T 768 625.749 T 1152 528.746 T 1536 364.541 T 1920 221.237 L 1920 0 Z" fill="url(#lg-0.2754486482907712)" opacity="0.4" style="opacity:0.4;animation-play-state:paused" ></path>
<path d="M 0 0 L 0 883.661 Q 192 678.797 384 659.808 T 768 570.551 T 1152 449.404 T 1536 364.033 T 1920 143.339 L 1920 0 Z" fill="url(#lg-0.2754486482907712)" opacity="0.4" style="opacity:0.4;animation-play-state:paused" ></path>
<path d="M 0 0 L 0 824.267 Q 192 692.412 384 654.469 T 768 578.027 T 1152 374.926 T 1536 262.137 T 1920 218.278 L 1920 0 Z" fill="url(#lg-0.2754486482907712)" opacity="0.4" style="opacity:0.4;animation-play-state:paused" ></path>
<path d="M 0 0 L 0 823.051 Q 192 739.471 384 715.964 T 768 657.698 T 1152 513.273 T 1536 356.027 T 1920 286.137 L 1920 0 Z" fill="url(#lg-0.2754486482907712)" opacity="0.4" style="opacity:0.4;animation-play-state:paused" ></path></g></svg>